<svg height="512pt" viewBox="0 -25 512 512" width="512pt" xmlns="http://www.w3.org/2000/svg"><path d="m416.949219 43.085938v124.28125c0 4.140624 3.355469 7.5 7.5 7.5 4.140625 0 7.5-3.359376 7.5-7.5v-94.027344c0-9.886719 8.039062-17.925782 17.925781-17.925782s17.929688 8.039063 17.929688 17.925782v10.34375c0 4.140625 3.359374 7.5 7.5 7.5 4.140624 0 7.5-3.359375 7.5-7.5v-10.34375c0-18.15625-14.773438-32.925782-32.929688-32.925782-6.605469 0-12.765625 1.953126-17.925781 5.320313v-2.648437c0-18.15625-14.773438-32.929688-32.929688-32.929688s-32.925781 14.773438-32.925781 32.929688v3.5c-5.164062-3.367188-11.324219-5.320313-17.929688-5.320313-17.96875 0-32.621093 14.464844-32.921874 32.363281-5.164063-3.363281-11.324219-5.324218-17.933594-5.324218-18.160156 0-32.929688 14.773437-32.929688 32.929687v15.484375h-16.757812v-15.484375c0-18.15625-14.769532-32.929687-32.925782-32.929687-6.609374 0-12.769531 1.960937-17.933593 5.324218-.300781-17.898437-14.957031-32.363281-32.921875-32.363281-6.609375 0-12.769532 1.953125-17.929688 5.320313v-3.5c0-18.15625-14.769531-32.929688-32.929687-32.929688-18.15625 0-32.929688 14.773438-32.929688 32.929688v2.644531c-5.160156-3.363281-11.320312-5.320313-17.925781-5.320313-18.15625 0-32.929688 14.773438-32.929688 32.929688v55.988281c-16.503906 2.488281-29.195312 16.765625-29.195312 33.953125v99.847656c0 12.980469 4.023438 25.394532 11.640625 35.902344l26.664063 36.792969c5.746093 7.933593 8.785156 17.304687 8.785156 27.101562v91.390625c0 4.144532 3.359375 7.5 7.5 7.5s7.5-3.355468 7.5-7.5v-91.390625c0-12.980469-4.023438-25.394531-11.640625-35.902343l-26.664063-36.796876c-5.746094-7.929687-8.785156-17.300781-8.785156-27.097656v-99.847656c0-10.664062 8.675781-19.339844 19.339844-19.339844 10.667968 0 19.34375 8.675782 19.34375 19.339844v49.445312c0 4.140626 3.355468 7.5 7.5 7.5 25.464844 0 46.179687 20.714844 46.179687 46.179688v56.507812c0 4.144532 3.359375 7.5 7.5 7.5 4.144531 0 7.5-3.355468 7.5-7.5v-56.507812c0-31.195312-23.46875-57.015625-53.679687-60.722656v-42.402344c0-15.511719-10.339844-28.644531-24.488282-32.890625v-57.050781c0-9.886719 8.042969-17.925782 17.929688-17.925782s17.925781 8.039063 17.925781 17.925782v94.027344c0 4.140624 3.359375 7.5 7.5 7.5 4.144531 0 7.5-3.359376 7.5-7.5v-124.28125c0-9.886719 8.042969-17.929688 17.929688-17.929688s17.925781 8.042969 17.925781 17.929688v124.28125c0 4.140624 3.359375 7.5 7.5 7.5 4.144531 0 7.5-3.359376 7.5-7.5v-93.175782c0-9.886718 8.042969-17.925781 17.929688-17.925781 9.886718 0 17.929687 8.039063 17.929687 17.925781v114.144532h-22.738281c-15.503906 0-28.121094 12.613281-28.121094 28.117187v50.710937c0 15.507813 12.617188 28.121094 28.121094 28.121094h43.5v24.351563l-5.355469 7.386719c-7.613281 10.507812-11.640625 22.921874-11.640625 35.902343v91.390625c0 4.144532 3.359375 7.5 7.5 7.5 4.144531 0 7.5-3.355468 7.5-7.5v-91.390625c0-5.722656 1.042969-11.296875 3.050781-16.527343 3.332031 11.816406 14.199219 20.5 27.0625 20.5h50.710938c12.863281 0 23.730469-8.683594 27.0625-20.496094 2.003906 5.230468 3.050781 10.800781 3.050781 16.523437v30.144531c0 4.144532 3.355469 7.5 7.5 7.5 4.140625 0 7.5-3.355468 7.5-7.5v-30.144531c0-12.980469-4.027344-25.394531-11.640625-35.902343l-5.351563-7.382813v-24.355469h43.496094c15.503906 0 28.117188-12.613281 28.117188-28.121094v-11.167968c0-4.140625-3.355469-7.5-7.5-7.5-4.140625 0-7.5 3.359375-7.5 7.5v11.167968c0 7.234376-5.882813 13.121094-13.117188 13.121094h-50.996094c-4.140624 0-7.5 3.359375-7.5 7.5v50.996094c0 7.234375-5.886718 13.117188-13.121093 13.117188h-50.710938c-7.234375 0-13.117187-5.882813-13.117187-13.117188v-50.996094c0-4.140625-3.359375-7.5-7.5-7.5h-51c-7.234375 0-13.121094-5.886718-13.121094-13.121094v-50.710937c0-7.234375 5.886719-13.117187 13.121094-13.117187h51c4.140625 0 7.5-3.359376 7.5-7.5v-51c0-7.234376 5.882812-13.117188 13.117187-13.117188h50.710938c7.234375 0 13.121093 5.882812 13.121093 13.117188v51c0 4.140624 3.359376 7.5 7.5 7.5h50.996094c7.234375 0 13.117188 5.882812 13.117188 13.117187v5.367187c0 4.140626 3.359375 7.5 7.5 7.5 4.144531 0 7.5-3.359374 7.5-7.5v-5.367187c0-15.503906-12.613282-28.117187-28.117188-28.117187h-22.738281v-114.144532c0-9.886718 8.042969-17.925781 17.929687-17.925781 9.886719 0 17.925782 8.039063 17.925782 17.925781v93.175782c0 4.140624 3.359375 7.5 7.5 7.5 4.144531 0 7.5-3.359376 7.5-7.5v-124.28125c0-9.886719 8.042968-17.929688 17.929687-17.929688s17.929688 8.042969 17.929688 17.929688zm-214.421875 101.75v43.5h-5.761719v-87.101563c0-9.886719 8.042969-17.929687 17.929687-17.929687 9.882813 0 17.925782 8.042968 17.925782 17.929687v15.484375h-1.976563c-15.503906 0-28.117187 12.613281-28.117187 28.117188zm106.949218 43.5v-43.5c0-15.507813-12.613281-28.121094-28.117187-28.121094h-1.980469v-15.480469c0-9.886719 8.042969-17.929687 17.929688-17.929687 9.882812 0 17.925781 8.042968 17.925781 17.929687v87.101563zm0 0"/><path d="m318.96875 424.023438c-4.144531 0-7.5 3.359374-7.5 7.5v22.792968c0 4.144532 3.355469 7.5 7.5 7.5 4.140625 0 7.5-3.355468 7.5-7.5v-22.792968c0-4.140626-3.359375-7.5-7.5-7.5zm0 0"/><path d="m482.804688 129.328125v-10.210937c0-4.140626-3.359376-7.5-7.5-7.5-4.140626 0-7.5 3.359374-7.5 7.5v11.273437c-14.148438 4.246094-24.488282 17.382813-24.488282 32.890625v42.402344c-30.207031 3.710937-53.679687 29.527344-53.679687 60.726562v56.503906c0 4.144532 3.355469 7.5 7.5 7.5 4.140625 0 7.5-3.355468 7.5-7.5v-56.507812c0-25.464844 20.714843-46.179688 46.179687-46.179688 4.144532 0 7.5-3.359374 7.5-7.5v-49.445312c0-10.664062 8.675782-19.339844 19.34375-19.339844 10.664063 0 19.339844 8.675782 19.339844 19.339844v99.847656c0 9.796875-3.039062 19.167969-8.785156 27.097656l-26.664063 36.796876c-7.617187 10.507812-11.640625 22.921874-11.640625 35.902343v91.390625c0 4.144532 3.359375 7.5 7.5 7.5s7.5-3.355468 7.5-7.5v-91.390625c0-9.796875 3.039063-19.167969 8.785156-27.101562l26.664063-36.792969c7.617187-10.507812 11.640625-22.921875 11.640625-35.902344v-99.847656c0-17.1875-12.691406-31.464844-29.195312-33.953125zm0 0"/><path d="m284.035156 392.996094h-2.65625v-2.65625c0-4.140625-3.359375-7.5-7.5-7.5-4.144531 0-7.5 3.359375-7.5 7.5v2.65625h-2.65625c-4.144531 0-7.5 3.359375-7.5 7.5 0 4.144531 3.355469 7.5 7.5 7.5h2.65625v2.660156c0 4.140625 3.355469 7.5 7.5 7.5 4.140625 0 7.5-3.359375 7.5-7.5v-2.660156h2.65625c4.140625 0 7.5-3.355469 7.5-7.5 0-4.140625-3.359375-7.5-7.5-7.5zm0 0"/><path d="m279.824219 25.15625h2.65625v2.65625c0 4.144531 3.359375 7.5 7.5 7.5s7.5-3.355469 7.5-7.5v-2.65625h2.65625c4.144531 0 7.5-3.355469 7.5-7.5 0-4.140625-3.355469-7.5-7.5-7.5h-2.65625v-2.65625c0-4.140625-3.359375-7.5-7.5-7.5s-7.5 3.359375-7.5 7.5v2.65625h-2.65625c-4.140625 0-7.5 3.359375-7.5 7.5 0 4.144531 3.359375 7.5 7.5 7.5zm0 0"/><path d="m226.1875 45.472656h2.65625v2.65625c0 4.140625 3.359375 7.5 7.5 7.5 4.144531 0 7.5-3.359375 7.5-7.5v-2.65625h2.660156c4.140625 0 7.5-3.359375 7.5-7.5 0-4.144531-3.359375-7.5-7.5-7.5h-2.660156v-2.660156c0-4.140625-3.355469-7.5-7.5-7.5-4.140625 0-7.5 3.359375-7.5 7.5v2.660156h-2.65625c-4.140625 0-7.5 3.355469-7.5 7.5 0 4.140625 3.359375 7.5 7.5 7.5zm0 0"/></svg>