<?xml version="1.0" encoding="iso-8859-1"?>
<!-- Generator: Adobe Illustrator 18.0.0, SVG Export Plug-In . SVG Version: 6.00 Build 0)  -->
<!DOCTYPE svg PUBLIC "-//W3C//DTD SVG 1.1//EN" "http://www.w3.org/Graphics/SVG/1.1/DTD/svg11.dtd">
<svg version="1.1" id="Capa_1" xmlns="http://www.w3.org/2000/svg" xmlns:xlink="http://www.w3.org/1999/xlink" x="0px" y="0px"
	 viewBox="0 0 494.568 494.568" style="enable-background:new 0 0 494.568 494.568;" xml:space="preserve">
<path d="M492.078,184.205l-55.233-55.232c1.18-1.216,2.313-2.309,3.94-3.908c7.993-7.855,17.053-16.761,17.053-29.822
	s-9.059-21.965-17.051-29.821c-2.287-2.248-4.447-4.371-6.416-6.571c-1.983-2.217-4.012-5.493-6.159-8.962
	c-4.923-7.954-10.502-16.969-20.204-21.711c-3.902-1.907-8.272-2.796-13.751-2.796c-3.135,0-6.267,0.288-9.296,0.566
	c-2.914,0.268-5.666,0.521-8.297,0.521c-2.009,0-3.715-0.151-5.217-0.463c-3.23-0.671-7.107-2.857-11.21-5.173
	c-6.71-3.785-14.314-8.075-23.189-8.075s-16.479,4.29-23.189,8.075c-4.104,2.315-7.98,4.502-11.21,5.173
	c-1.502,0.312-3.208,0.463-5.217,0.463c-2.631,0-5.383-0.253-8.297-0.521c-3.029-0.278-6.161-0.566-9.297-0.566
	c-5.478,0-9.847,0.888-13.749,2.795c-9.701,4.742-15.281,13.756-20.203,21.709c-2.148,3.469-4.176,6.746-6.16,8.963
	c-1.969,2.2-4.129,4.322-6.416,6.57c-7.993,7.856-17.053,16.762-17.053,29.824c0,13.061,9.059,21.966,17.051,29.821
	c0.98,0.964,1.932,1.903,2.86,2.837l-13.964,13.475c-12.966,0.02-19.834,2.508-25.892,4.705c-5.455,1.98-10.166,3.689-20.243,3.689
	c-10.077,0-14.788-1.709-20.243-3.689c-6.082-2.206-12.976-4.707-26.041-4.707c-10.369,0-19.283,4.811-27.148,9.055
	c-4.135,2.231-8.041,4.339-11.726,5.551c-3.936,1.296-8.491,1.963-13.313,2.67c-8.724,1.277-18.611,2.727-26.636,8.63
	c-8.061,5.931-12.395,14.932-16.22,22.872c-2.11,4.382-4.103,8.521-6.499,11.837c-2.347,3.249-5.614,6.4-9.073,9.736
	c-6.375,6.149-13.602,13.12-16.724,22.766c-5.238,16.18-0.892,37.596,2.165,48.921c1.327,4.916,2.844,8.844,4.182,12.308
	c2.276,5.892,3.92,10.148,3.92,17.138c0,4.131-1.02,5.734-2.871,8.647c-2.331,3.668-5.524,8.69-5.524,17.767
	s3.193,14.1,5.524,17.767c1.851,2.913,2.871,4.517,2.871,8.647c0,4.276-1.735,7.522-3.745,11.282
	c-2.724,5.097-6.114,11.439-4.059,19.864c2.979,12.214,9.849,16.887,17.523,18.417v34.416c0,16.864,13.721,30.585,30.586,30.585
	h12.148c16.865,0,30.586-13.721,30.586-30.585v-43.363c4.525,0.523,7.354,1.756,10.713,3.22c4.431,1.93,9.37,4.07,17.586,4.71
	v36.998c0,16.864,13.721,30.585,30.585,30.585h12.147c16.865,0,30.586-13.721,30.586-30.585v-37.418
	c2.55,0.383,5.445,0.615,8.826,0.615c11.406,0,17.388-2.607,22.665-4.905c0.572-0.249,1.128-0.491,1.68-0.725v40.868
	c0,16.864,13.721,30.585,30.586,30.585h12.147c16.865,0,30.586-13.721,30.586-30.585v-39.248c0.711-0.3,1.401-0.601,2.079-0.896
	c4.476-1.95,8.011-3.49,15.875-3.49s11.399,1.54,15.875,3.49c1.709,0.744,3.496,1.521,5.513,2.229v39.479
	c0,16.864,13.721,30.585,30.586,30.585h12.147c16.865,0,30.586-13.721,30.586-30.585v-39.443c6.617,3.311,15.292,6.639,25.765-0.624
	c15.627-10.832,12.974-23.729,11.218-32.263c-0.403-1.959-0.784-3.81-0.958-5.521c-0.935-9.225-3.282-14.454-5.167-18.656
	c-1.849-4.121-3.185-7.099-3.185-14.277c0-6.452,1.388-9.246,3.31-13.113c2.266-4.559,5.086-10.234,5.086-20.677
	c0-10.444-2.82-16.119-5.086-20.68c-1.922-3.867-3.31-6.662-3.31-13.115c0-7.648,2.058-18.479,4.048-28.953
	c1.555-8.183,3.138-16.558,3.891-24.082c1.568,0.255,3.146,0.39,4.735,0.39c1.435,0,2.878-0.104,4.328-0.312
	c19.335-2.775,31.057-23.278,32.33-25.607C495.336,190.981,494.746,186.874,492.078,184.205z M361.195,232.155
	c-4.078-2.324-9.269-0.903-11.593,3.176l-13.047,22.893l-13.047-22.893c-2.324-4.078-7.515-5.5-11.593-3.176
	c-4.079,2.324-5.501,7.515-3.176,11.594l18.67,32.761c-46.907-4.378-83.747-43.961-83.747-91.992
	c0-12.431,2.517-24.711,7.321-36.058c3.864,5.47,8.539,10.637,15.104,13.847c3.902,1.907,8.272,2.796,13.751,2.796
	c3.135,0,6.267-0.288,9.295-0.566c2.914-0.268,5.667-0.52,8.298-0.52c2.009,0,3.715,0.151,5.217,0.463
	c3.23,0.671,7.107,2.857,11.21,5.173c6.71,3.786,14.314,8.076,23.189,8.076c8.874,0,16.478-4.29,23.187-8.075
	c4.104-2.315,7.98-4.502,11.211-5.173c1.502-0.311,3.208-0.463,5.217-0.463c2.631,0,5.383,0.253,8.297,0.52
	c3.028,0.278,6.16,0.566,9.295,0.566c5.48,0,9.849-0.889,13.752-2.796c5.872-2.87,10.228-7.309,13.849-12.126
	c4.339,10.863,6.607,22.549,6.607,34.336c0,47.676-36.295,87.03-82.705,91.893l18.613-32.661
	C366.696,239.67,365.274,234.479,361.195,232.155z M227.226,195.674c-0.027,0.026-0.057,0.049-0.083,0.075
	c-5.649,5.65-10.877,8.047-15.987,7.329c-6.534-0.918-12.512-6.784-16.315-11.675l35.241-34.004
	c-2.252,8.823-3.419,17.937-3.419,27.118C226.661,188.283,226.853,192.005,227.226,195.674z M233.258,95.242
	c0-5.936,5.547-11.388,11.97-17.7c2.377-2.336,4.835-4.752,7.167-7.357c2.982-3.333,5.506-7.41,7.946-11.352
	c3.894-6.29,7.92-12.795,13.214-15.383c1.492-0.729,3.488-1.068,6.284-1.068c2.357,0,4.972,0.24,7.741,0.494
	c3.168,0.292,6.443,0.593,9.854,0.593c3.184,0,6.02-0.268,8.672-0.818c5.823-1.208,11.052-4.158,16.108-7.011
	c5.361-3.025,10.425-5.882,14.835-5.882c4.41,0,9.475,2.857,14.836,5.882c5.057,2.853,10.286,5.803,16.109,7.011
	c2.652,0.551,5.488,0.818,8.671,0.818c3.41,0,6.686-0.301,9.853-0.592c2.769-0.255,5.384-0.495,7.74-0.495
	c2.796,0,4.794,0.34,6.286,1.069c5.294,2.588,9.32,9.093,13.214,15.384c2.44,3.942,4.963,8.019,7.945,11.352
	c2.332,2.606,4.791,5.022,7.168,7.359c6.422,6.313,11.968,11.764,11.968,17.697c0,5.935-5.547,11.386-11.969,17.698
	c-2.377,2.337-4.835,4.753-7.168,7.359c-2.982,3.332-5.505,7.409-7.946,11.352c-3.894,6.29-7.92,12.795-13.214,15.383
	c-1.492,0.729-3.489,1.069-6.286,1.069c-2.356,0-4.971-0.24-7.74-0.495c-3.167-0.291-6.442-0.592-9.852-0.592
	c-3.183,0-6.02,0.268-8.671,0.817c-5.824,1.209-11.053,4.159-16.111,7.013c-5.361,3.024-10.424,5.881-14.833,5.881
	c-4.41,0-9.474-2.857-14.835-5.882c-5.057-2.854-10.286-5.804-16.109-7.012c-2.652-0.551-5.488-0.818-8.671-0.818
	c-3.411,0-6.686,0.301-9.853,0.592c-2.769,0.255-5.384,0.495-7.74,0.495c-2.796,0-4.793-0.34-6.285-1.069
	c-5.294-2.588-9.321-9.093-13.214-15.384c-2.44-3.942-4.963-8.019-7.945-11.351c-2.332-2.606-4.79-5.022-7.167-7.359
	C238.804,106.627,233.258,101.176,233.258,95.242z M65.166,463.247H53.019c-7.491,0-13.586-6.094-13.586-13.585v-34.395
	c0.116-0.011,0.237-0.022,0.352-0.034c3.956-0.398,8.046-0.809,12.268-0.809c11.406,0,17.387-2.607,22.664-4.905
	c1.383-0.603,2.676-1.165,4.035-1.656v41.8C78.752,457.153,72.658,463.247,65.166,463.247z M180.37,451.226
	c0,7.491-6.095,13.585-13.586,13.585h-12.147c-7.491,0-13.585-6.094-13.585-13.585V413.24c4.415-0.972,7.698-2.396,10.74-3.722
	c4.475-1.95,8.009-3.49,15.871-3.49c5.974,0,9.449,0.89,12.736,2.173c-0.012,0.188-0.028,0.373-0.028,0.564V451.226z
	 M247.541,406.083c6.252,0.282,9.07,1.693,13.068,3.436c5.277,2.299,11.258,4.905,22.665,4.905c1.263,0,2.45-0.037,3.586-0.097
	v35.335c0,7.491-6.095,13.585-13.586,13.585h-12.147c-7.492,0-13.586-6.094-13.586-13.585V406.083z M399.521,451.226
	c0,7.491-6.094,13.585-13.586,13.585h-12.147c-7.491,0-13.586-6.094-13.586-13.585v-36.805c0.052,0,0.1,0.002,0.152,0.002
	c11.408,0,17.39-2.605,22.667-4.905c4.477-1.95,8.013-3.49,15.878-3.49c0.368,0,0.707,0.033,1.063,0.048
	c-0.282,0.846-0.441,1.748-0.441,2.689V451.226z M432.6,397.188c-2.887,2.003-3.649,1.89-10.204-1.493
	c-5.451-2.813-12.916-6.667-23.497-6.667c-11.407,0-17.389,2.605-22.667,4.905c-4.477,1.95-8.013,3.49-15.878,3.49
	c-7.863,0-11.399-1.54-15.875-3.49c-5.277-2.299-11.259-4.905-22.665-4.905c-11.406,0-17.388,2.606-22.665,4.905
	c-4.476,1.95-8.011,3.49-15.875,3.49c-7.863,0-11.399-1.54-15.875-3.49c-5.277-2.299-11.258-4.905-22.665-4.905
	c-11.406,0-17.387,2.606-22.664,4.905c-4.476,1.95-8.011,3.49-15.875,3.49c-7.862,0-11.396-1.54-15.871-3.49
	c-5.277-2.299-11.257-4.905-22.663-4.905c-11.405,0-17.386,2.606-22.662,4.905c-4.475,1.95-8.009,3.49-15.871,3.49
	c-7.863,0-11.399-1.54-15.874-3.49c-5.277-2.299-11.258-4.905-22.664-4.905c-11.406,0-17.387,2.606-22.664,4.905
	c-4.476,1.95-8.011,3.49-15.874,3.49c-5.074,0-9.799,0.475-13.968,0.895c-14.394,1.445-15.141,0.707-16.66-5.519
	c-0.473-1.939,0.276-3.592,2.537-7.821c2.427-4.542,5.751-10.762,5.751-19.296c0-9.076-3.193-14.1-5.524-17.767
	c-1.851-2.913-2.871-4.517-2.871-8.647c0-4.13,1.02-5.734,2.871-8.646c2.332-3.668,5.524-8.691,5.524-17.768
	c0-10.159-2.573-16.82-5.062-23.263c-1.245-3.225-2.533-6.559-3.627-10.612c-4.367-16.178-5.243-30.486-2.404-39.255
	c1.813-5.6,6.932-10.538,12.353-15.767c3.843-3.706,7.817-7.539,11.051-12.017c3.278-4.538,5.697-9.56,8.035-14.415
	c3.252-6.753,6.324-13.132,10.978-16.556c4.609-3.392,11.612-4.417,19.025-5.503c5.326-0.78,10.833-1.587,16.164-3.342
	c5.116-1.684,9.878-4.254,14.483-6.738c6.686-3.608,13.001-7.016,19.076-7.016c10.077,0,14.788,1.709,20.243,3.688
	c6.082,2.206,12.975,4.707,26.04,4.707c11.562,0,18.289-1.959,23.899-3.939l-22.042,21.269c-2.756,2.66-3.393,6.834-1.556,10.194
	c1.273,2.329,12.996,22.832,32.331,25.607c1.45,0.208,2.893,0.312,4.328,0.312c6.107,0,12.069-1.892,17.833-5.634
	c13.093,45.754,55.297,79.34,105.2,79.34c41.566,0,77.79-23.303,96.301-57.529c-0.271,1.447-0.546,2.898-0.821,4.342
	c-2.137,11.247-4.347,22.878-4.347,32.127c0,10.444,2.82,16.119,5.085,20.68c1.922,3.867,3.31,6.662,3.31,13.115
	c0,6.451-1.388,9.245-3.31,13.112c-2.266,4.56-5.086,10.234-5.086,20.678c0,10.818,2.483,16.353,4.675,21.237
	c1.667,3.714,3.106,6.922,3.764,13.411c0.261,2.573,0.748,4.941,1.219,7.231C438.414,389.913,438.999,392.753,432.6,397.188z
	 M458.742,203.078c-4.523,0.642-9.141-1.175-14.06-5.518c0.511-4.278,0.781-8.629,0.781-13.043c0-8.797-1.078-17.547-3.154-26.039
	l32.824,32.824C471.33,196.219,465.317,202.154,458.742,203.078z"/>
<g>
</g>
<g>
</g>
<g>
</g>
<g>
</g>
<g>
</g>
<g>
</g>
<g>
</g>
<g>
</g>
<g>
</g>
<g>
</g>
<g>
</g>
<g>
</g>
<g>
</g>
<g>
</g>
<g>
</g>
</svg>
