<svg height="511pt" viewBox="-73 0 511 511.998" width="511pt" xmlns="http://www.w3.org/2000/svg"><path d="m123.070312 208.289062c1.355469 2.253907 2.136719 4.894532 2.136719 7.71875v103.304688h42.761719v-24.316406c0-8.28125 6.714844-15 15-15s15 6.71875 15 15v24.316406h42.761719v-103.304688c0-2.820312.78125-5.464843 2.136719-7.71875l-59.898438-50.917968zm74.898438 24.035157v9.21875c0 8.285156-6.714844 15-15 15s-15-6.714844-15-15v-9.21875c0-8.28125 6.714844-15 15-15s15 6.71875 15 15zm0 0"/><path d="m359.273438 50.785156c-3.875-2.824218-8.867188-3.628906-13.429688-2.15625-13.992188 4.503906-28.59375 6.785156-43.398438 6.785156-41.675781 0-81.050781-18.265624-108.03125-50.109374-2.851562-3.363282-7.035156-5.304688-11.445312-5.304688s-8.59375 1.941406-11.445312 5.304688c-26.976563 31.847656-66.351563 50.109374-108.03125 50.109374-14.804688 0-29.40625-2.28125-43.398438-6.785156-4.566406-1.472656-9.554688-.667968-13.429688 2.15625-3.875 2.820313-6.164062 7.328125-6.164062 12.121094v225.480469c0 26.9375 6.285156 53.953125 18.183594 78.121093 11.894531 24.171876 29.464844 45.632813 50.808594 62.0625l104.328124 80.3125c2.695313 2.078126 5.921876 3.113282 9.148438 3.113282s6.453125-1.035156 9.148438-3.113282l104.328124-80.3125c21.34375-16.433593 38.914063-37.894531 50.8125-62.0625 11.894532-24.167968 18.179688-51.183593 18.179688-78.121093v-225.480469c0-4.792969-2.289062-9.300781-6.164062-12.121094zm-88.542969 180.222656v103.304688c0 8.285156-6.714844 15-15 15h-145.523438c-8.285156 0-15-6.714844-15-15v-103.304688h-4.378906c-6.289063 0-11.910156-3.921874-14.082031-9.824218-2.167969-5.902344-.425782-12.53125 4.367187-16.601563l92.140625-78.328125c5.601563-4.761718 13.828125-4.761718 19.429688 0l92.144531 78.328125c4.789063 4.070313 6.53125 10.699219 4.363281 16.601563-2.171875 5.902344-7.792968 9.824218-14.078125 9.824218zm0 0"/></svg>